<svg id="Capa_1" enable-background="new 0 0 512 512" height="512" viewBox="0 0 512 512" width="512" xmlns="http://www.w3.org/2000/svg"><path d="m511.996 257.53c-.549 93.751-51.497 175.56-127.116 219.69l-7.54 2.035c-79.455 21.442-163.19 21.316-242.58-.365l-8.97-2.45h-.01c-75.29-44.57-125.78-126.61-125.78-220.44 0-141.38 114.619-256 255.999-256 141.633 0 256.825 115.899 255.997 257.53z" fill="#4e689b"/><path d="m512 256c0 87.11-43.52 164.07-110 210.31-5.55 3.86-11.26 7.51-17.12 10.92v-.01l-7.54 2.035c-79.455 21.442-163.19 21.316-242.58-.365l-8.97-2.45h-.01c-5.39-3.18-10.65-6.56-15.78-10.13-66.48-46.24-110-123.2-110-210.31 0-46.22 12.25-89.57 33.68-127 44.12 77.07 127.16 129 222.32 129s178.21-51.93 222.32-129c21.43 37.43 33.68 80.78 33.68 127z" fill="#374c81"/><path d="m384.88 331.31v145.91c-9.05 5.3-18.45 10.04-28.16 14.2-16.65 7.14-34.22 12.56-52.47 16.04-7.37 1.41-14.86 2.49-22.45 3.25-8.49.86-17.09 1.29-25.8 1.29-8.7 0-17.3-.43-25.78-1.28-7.59-.76-15.08-1.85-22.46-3.26-18.25-3.48-35.82-8.9-52.47-16.04-10.19-4.37-20.04-9.37-29.5-14.98v-145.13z" fill="#fff"/><path d="m384.88 331.31v145.91c-9.05 5.3-18.45 10.04-28.16 14.2-16.65 7.14-34.22 12.56-52.47 16.04-7.37 1.41-14.86 2.49-22.45 3.25-8.49.86-17.09 1.29-25.8 1.29v-180.69z" fill="#d1f6ff"/><path d="m104.28 305.11h303.44v57.979h-303.44z" fill="#65b2fe"/><path d="m256 305.11h151.72v57.979h-151.72z" fill="#0e9ce7"/><path d="m207.82 406.4v99.33c0 .58-.02 1.16-.06 1.73-18.25-3.48-35.82-8.9-52.47-16.04v-85.02c0-14.5 11.76-26.26 26.26-26.26 7.25 0 13.82 2.94 18.58 7.69 4.75 4.75 7.69 11.32 7.69 18.57z" fill="#8fc8f5"/><path d="m356.72 406.4v85.02c-16.65 7.14-34.22 12.56-52.47 16.04-.04-.57-.06-1.15-.06-1.73v-99.33c0-14.5 11.76-26.26 26.26-26.26 7.25 0 13.82 2.94 18.58 7.69 4.75 4.75 7.69 11.32 7.69 18.57z" fill="#65b2fe"/><path d="m282.27 406.4v99.33c0 1.7-.16 3.37-.47 4.98-8.49.86-17.09 1.29-25.8 1.29-8.7 0-17.3-.43-25.78-1.28-.32-1.61-.48-3.28-.48-4.99v-99.33c0-14.51 11.75-26.27 26.26-26.27 7.26 0 13.82 2.94 18.58 7.7 4.75 4.75 7.69 11.32 7.69 18.57z" fill="#8fc8f5"/><path d="m282.27 406.4v99.33c0 1.7-.16 3.37-.48 4.98-8.48.86-17.08 1.29-25.79 1.29v-131.87c7.26 0 13.82 2.94 18.58 7.7 4.75 4.75 7.69 11.32 7.69 18.57z" fill="#65b2fe"/><path d="m376.806 216.611v86.411c0 5.466-2.775 10.561-7.376 13.522l-41.335 26.618c-10.635-5.801-12.956-7.067-23.591-12.868v-27.984c0-17.179 10.847-31.821 26.062-37.457 4.182-1.546 7.646-4.329 10.074-7.824 2.428-3.502 3.804-7.731 3.804-12.184 0-5.907-2.389-11.241-6.254-15.114-3.866-3.866-9.208-6.254-15.107-6.254-22.389 0-40.542 18.153-40.542 40.542v50.464l-26.541 17.093-26.541-17.093v-50.464c0-11.195-4.538-21.33-11.875-28.667s-17.472-11.875-28.667-11.875c-2.969 0-5.798.603-8.373 1.701-2.528 1.082-4.816 2.636-6.734 4.554-3.866 3.873-6.254 9.208-6.254 15.114 0 8.582 5.126 16.328 12.988 19.653.294.124.588.247.889.356 15.215 5.636 26.062 20.279 26.062 37.457v27.983c-10.635 5.801-12.956 7.067-23.591 12.867l-3.359-2.163-37.975-24.454c-4.6-2.961-7.376-8.056-7.376-13.522v-85.475c0-64.771 51.466-118.796 115.526-121.618 1.747-.085 3.51-.124 5.28-.124h.696c66.402.377 120.11 54.317 120.11 120.805z" fill="#d1f6ff"/><path d="m207.495 302.31v27.983l-23.591 12.867-3.359-2.163v-76.499c.294.124.588.247.889.356 15.214 5.635 26.061 20.278 26.061 37.456z" fill="#8fc8f5"/><path d="m376.806 216.611v86.411c0 5.466-2.775 10.561-7.376 13.522l-41.335 26.618c-10.635-5.801-12.956-7.067-23.591-12.868v-27.984c0-17.179 10.847-31.821 26.062-37.457 4.182-1.546 7.646-4.329 10.074-7.824 2.428-3.502 3.804-7.731 3.804-12.184 0-5.907-2.389-11.241-6.254-15.114-3.866-3.866-9.208-6.254-15.107-6.254-22.389 0-40.542 18.153-40.542 40.542v50.464l-26.541 17.093-26.541-17.093v-50.464c0-11.195-4.538-21.33-11.875-28.667s-17.472-11.875-28.667-11.875c-2.969 0-5.798.603-8.373 1.701v-18.184c0-48.652 28.791-91.297 70.175-111.065 1.747-.085 3.51-.124 5.28-.124h.696c66.403.378 120.111 54.318 120.111 120.806z" fill="#8fc8f5"/><path d="m376.806 216.611v86.411c0 5.466-2.775 10.561-7.376 13.522l-41.335 26.618-23.591-12.868v-27.984c0-17.179 10.847-31.821 26.062-37.457 4.182-1.546 7.646-4.329 10.074-7.824 2.428-3.502 3.804-7.731 3.804-12.184 0-5.907-2.389-11.241-6.254-15.114-3.866-3.866-9.208-6.254-15.107-6.254-22.389 0-40.542 18.153-40.542 40.542v50.464l-26.541 17.093v-235.772h.696c66.402.379 120.11 54.319 120.11 120.807z" fill="#65b2fe"/><path d="m287.388 50.901v75.589c0 17.078-7.87 33.213-21.338 43.719l-9.355 7.298-.695.542-10.05-7.839c-6.734-5.257-12.068-11.914-15.717-19.397-3.657-7.476-5.621-15.779-5.621-24.322v-75.59c0-7.677 6.224-13.901 13.901-13.901h34.968c7.684 0 13.907 6.224 13.907 13.901z" fill="#ffe853"/><path d="m287.388 50.901v75.589c0 17.078-7.87 33.213-21.338 43.719l-9.355 7.298-.695.542v-141.049h17.48c7.685 0 13.908 6.224 13.908 13.901z" fill="#fed110"/><path d="m269.692 104.131v81.355l-13.692 10.676-13.692-10.677v-81.355c0-4.6 3.734-8.326 8.334-8.326h10.715c4.601 0 8.335 3.727 8.335 8.327z" fill="#fff"/><path d="m269.692 104.131v81.355l-13.692 10.676v-100.358h5.358c4.6 0 8.334 3.727 8.334 8.327z" fill="#d1f6ff"/><g fill="#fff"><path d="m79.141 128.751h1.524c6.753 0 12.227-5.474 12.227-12.227v-1.524h8.716v1.524c0 6.753 5.474 12.227 12.227 12.227h1.525v8.716h-1.525c-6.753 0-12.227 5.474-12.227 12.227v1.525h-8.716v-1.525c0-6.753-5.474-12.227-12.227-12.227h-1.524z"/><path d="m396.641 128.751h1.524c6.753 0 12.227-5.474 12.227-12.227v-1.524h8.716v1.524c0 6.753 5.474 12.227 12.227 12.227h1.525v8.716h-1.525c-6.753 0-12.227 5.474-12.227 12.227v1.525h-8.716v-1.525c0-6.753-5.474-12.227-12.227-12.227h-1.524z"/><path d="m41.641 284.751h1.524c6.753 0 12.227-5.474 12.227-12.227v-1.524h8.716v1.524c0 6.753 5.474 12.227 12.227 12.227h1.525v8.716h-1.525c-6.753 0-12.227 5.474-12.227 12.227v1.525h-8.716v-1.525c0-6.753-5.474-12.227-12.227-12.227h-1.524z"/><path d="m434.141 284.751h1.524c6.753 0 12.227-5.474 12.227-12.227v-1.524h8.716v1.524c0 6.753 5.474 12.227 12.227 12.227h1.525v8.716h-1.525c-6.753 0-12.227 5.474-12.227 12.227v1.525h-8.716v-1.525c0-6.753-5.474-12.227-12.227-12.227h-1.524z"/></g></svg>