<svg id="Layer_1" height="512" viewBox="0 0 512 512" width="512" xmlns="http://www.w3.org/2000/svg" data-name="Layer 1"><circle cx="256" cy="256" fill="#f98506" r="248"/><path d="m115 336a254.822 254.822 0 0 0 48.732 150.253 247.3 247.3 0 0 0 92.268 17.747c136.967 0 248-111.033 248-248a247.094 247.094 0 0 0 -64.364-166.68 256.212 256.212 0 0 0 -68.636-9.32c-141.385 0-256 114.615-256 256z" fill="#e87605"/><path d="m160 160a40 40 0 0 1 0-80v16a24 24 0 1 0 24 24h16a40.046 40.046 0 0 1 -40 40z" fill="#ad630b"/><circle cx="304" cy="80" fill="#8e4f0a" r="32"/><path d="m80 272a40.046 40.046 0 0 1 -40-40h16a24 24 0 1 0 24-24v-16a40 40 0 0 1 0 80z" fill="#ad630b"/><path d="m424 272a40.046 40.046 0 0 1 -40-40h16a24 24 0 1 0 24-24v-16a40 40 0 0 1 0 80z" fill="#844a0b"/><path d="m224 296v48l-80-64-136 32s37.429 2.857 64 56c0 0 71.143-21.143 80 32 0 0 86.286-6 104 56h-.369c17.714-62 104.369-56 104.369-56 8.857-53.143 80-32 80-32 26.571-53.143 64-56 64-56l-136-32-80 64v-48l-32 24z" fill="#5b223c"/><circle cx="276" cy="196" fill="#8e4f0a" r="20"/><circle cx="324" cy="448" fill="#844a0b" r="16"/><circle cx="192" cy="248" fill="#8e4f0a" r="16"/><path d="m368.759 132h62.482v15.999h-62.482z" fill="#844a0b" transform="matrix(.768 -.64 .64 .768 3.083 288.517)"/><path d="m392 108.759h15.999v62.482h-15.999z" fill="#844a0b" transform="matrix(.64 -.768 .768 .64 36.375 357.663)"/><path d="m288 344v-48l-32 24-32-24v48l-80-64-136 32h119l129 73 128-73h120l-136-32z" fill="#fff" opacity=".2"/></svg>