<svg id="Layer_1" enable-background="new 0 0 512 512" height="512" viewBox="0 0 512 512" width="512" xmlns="http://www.w3.org/2000/svg"><g><g><g><g><g id="XMLID_822_"><g id="XMLID_828_"><g id="XMLID_829_"><g id="XMLID_830_"><g id="XMLID_831_"><g id="XMLID_832_"><g id="XMLID_833_"><g id="XMLID_834_"><g id="XMLID_835_"><g id="XMLID_836_"><g id="XMLID_837_"><g id="XMLID_838_"><g id="XMLID_839_"><g id="XMLID_840_"><g id="XMLID_841_"><circle cx="256" cy="256" fill="#ffe97b" r="256"/></g></g></g></g></g></g></g></g></g></g></g></g></g></g></g></g></g></g><path d="m256 512c141.385 0 256-114.615 256-256 0-32.757-6.162-64.073-17.375-92.864l-47.451-47.451-4.033 10.404-75.51-75.585s-43.936 56.094-55.281 74.606c-15.62-5.347-71.482-7.915-82.083-5.576l-71.74-71.602 34.318 137.644-107.015 29.504 85.417 85.435s-7.989 53.764-32.805 42.986c-63.632-27.637-80.182-5.451-79.116 11.1l.223-.203 154.095 154.095c13.78 2.294 27.925 3.507 42.356 3.507z" fill="#ffd522"/><g><g><path d="m180.489 168.067-115.663-52.382s-19.687 111.972 57.831 111.972z" fill="#3c8e2b"/><path d="m331.511 168.067 115.663-52.382s19.687 111.972-57.831 111.972z" fill="#2e7722"/></g><path d="m212.599 126.393s-39.704-66.469-54.072-78.461-40.65 26.914-8.677 106.259z" fill="#fff"/><path d="m299.376 126.393s39.704-66.469 54.072-78.461 41.279 27.552 9.306 106.898z" fill="#e1e1e1"/><path d="m256 109.37c-69.626 0-139.061 49.349-139.061 129.684s13.833 90.186 49.631 113.619c49.915 32.674 89.43 90.712 89.43 90.712.001-.001 39.515-58.038 89.43-90.712 35.798-23.433 49.632-33.284 49.632-113.619s-69.436-129.684-139.062-129.684z" fill="#63b74a"/><path d="m395.06 239.05c0 63.74-8.71 83.11-30.18 100.1-5.59 4.42-12.05 8.68-19.45 13.52-19.93 13.05-38.2 30.13-52.95 45.95-3.06 3.28-5.97 6.51-8.7 9.63-17.18 19.56-27.78 35.13-27.78 35.14v-334.02c69.63 0 139.06 49.35 139.06 129.68z" fill="#3c8e2b"/><path d="m181.831 398.615v27.982c0 19.429 15.75 35.179 35.179 35.179h77.98c19.429 0 35.179-15.75 35.179-35.179v-27.982z" fill="#ec4d49"/><path d="m330.17 398.62v27.98c0 19.43-15.75 35.18-35.18 35.18h-38.99v-63.16z" fill="#d11818"/><g><g><g><path d="m379.48 362.199c10.183 0 20.286-3.237 28.707-9.534l11.404-8.528c6.857-5.128 16.434-4.67 22.77 1.089l10.314 9.374 20.178-22.2-10.313-9.374c-16.951-15.407-42.568-16.633-60.913-2.915l-11.403 8.527c-5.188 3.879-12.087 4.654-18.005 2.019l-21.611-9.616-12.195 27.409 21.611 9.616c6.222 2.772 12.857 4.133 19.456 4.133z" fill="#282828"/></g></g></g><g><g><path d="m132.52 362.199c-10.183 0-20.286-3.237-28.707-9.534l-11.404-8.528c-6.857-5.128-16.434-4.67-22.77 1.089l-10.313 9.374-20.178-22.2 10.313-9.374c16.951-15.407 42.568-16.633 60.913-2.915l11.403 8.527c5.188 3.879 12.087 4.654 18.005 2.019l21.611-9.616 12.195 27.409-21.611 9.616c-6.223 2.772-12.858 4.133-19.457 4.133z" fill="#515151"/></g></g><g><ellipse cx="196.831" cy="227.656" fill="#515151" rx="23.651" ry="23.651" transform="matrix(.21 -.978 .978 .21 -67.07 372.316)"/><ellipse cx="315.169" cy="227.656" fill="#282828" rx="23.651" ry="23.651" transform="matrix(.796 -.606 .606 .796 -73.497 237.561)"/></g><path d="m364.537 340.449c1.146-4.066 1.773-8.348 1.773-12.775 0-26.001-21.154-47.155-47.155-47.155s-47.155 21.154-47.155 47.155h-32c0-26.001-21.153-47.155-47.155-47.155s-47.155 21.154-47.155 47.155c0 4.428.627 8.709 1.773 12.775-6.771 7.216-10.938 16.899-10.938 27.514 0 18.716 12.935 34.557 30.306 39.028v19.607c0 27.668 22.51 50.179 50.179 50.179h77.98c27.669 0 50.179-22.51 50.179-50.179v-19.608c17.372-4.471 30.306-20.311 30.306-39.028 0-10.614-4.167-20.298-10.938-27.513zm-57.192-12.776c0-6.512 5.298-11.81 11.81-11.81s11.81 5.298 11.81 11.81zm-126.31 0c0-6.512 5.298-11.81 11.81-11.81s11.81 5.298 11.81 11.81zm113.955 119.103h-77.98c-11.127 0-20.179-9.052-20.179-20.179l9.161-18.346h101.386l7.791 18.346c0 11.127-9.052 20.179-20.179 20.179z" fill="#3c8e2b"/><path d="m372.55 352.93c-1.89-4.65-4.63-8.87-8.01-12.48.12-.43.23-.86.34-1.3.93-3.67 1.43-7.52 1.43-11.48 0-26-21.15-47.15-47.15-47.15-26.01 0-47.16 21.15-47.16 47.15h-16v80.58h51.38l7.79 18.35c0 11.12-9.05 20.18-20.18 20.18h-38.99v30h38.99c27.67 0 50.18-22.51 50.18-50.18v-19.61c17.37-4.47 30.31-20.31 30.31-39.03 0-5.3-1.04-10.38-2.93-15.03zm-53.39-37.07c6.51 0 11.81 5.3 11.81 11.81h-23.63c0-6.51 5.3-11.81 11.82-11.81z" fill="#2e7722"/><path d="m196.831 408.251v42.874s32.274-21.176 31.523-42.874z" fill="#fff"/><path d="m315.169 408.251v42.874s-32.274-21.176-31.523-42.874z" fill="#e1e1e1"/><g><g><ellipse cx="192.845" cy="327.674" fill="#515151" rx="15.827" ry="15.827" transform="matrix(.283 -.959 .959 .283 -176.01 419.895)"/></g><g><g><g><ellipse cx="319.155" cy="327.674" fill="#282828" rx="15.827" ry="15.827" transform="matrix(.707 -.707 .707 .707 -138.222 321.65)"/></g></g></g></g></g></g></svg>