<?xml version="1.0" encoding="iso-8859-1"?>
<!-- Generator: Adobe Illustrator 19.0.0, SVG Export Plug-In . SVG Version: 6.00 Build 0)  -->
<svg version="1.1" id="Capa_1" xmlns="http://www.w3.org/2000/svg" xmlns:xlink="http://www.w3.org/1999/xlink" x="0px" y="0px"
	 viewBox="0 0 512 512" style="enable-background:new 0 0 512 512;" xml:space="preserve">
<circle style="fill:#80D5FF;" cx="256" cy="263.01" r="248.99"/>
<path style="fill:#ABE84B;" d="M196.51,43.557c11.979,8.273,26.628,9.744,39.387,5.264c2.423-0.851,4.031-3.18,3.969-5.747
	c-0.329-13.519-6.893-26.698-18.872-34.97c-11.979-8.273-26.628-9.744-39.387-5.265c-2.423,0.851-4.031,3.18-3.969,5.747
	C177.966,22.105,184.531,35.284,196.51,43.557z"/>
<path style="fill:#95DB1B;" d="M209.365,28.233c-9.784-6.757-15.952-16.788-18.064-27.603C188,1,184.746,1.737,181.606,2.84
	c-2.423,0.851-4.031,3.18-3.969,5.747c0.329,13.519,6.894,26.697,18.872,34.97s26.628,9.744,39.387,5.264
	c2.423-0.85,4.031-3.18,3.969-5.747c-0.06-2.477-0.334-4.941-0.808-7.367C228.945,36.838,218.396,34.471,209.365,28.233z"/>
<path style="fill:#ABE84B;" d="M99.265,111.1c-1.571,1.757-2.063,4.294-1.264,6.511c16.436,45.601,61.693,69.708,105.556,59.295
	c36.736-8.721,46.587-59.472,15.782-81.304C182.602,69.568,131.606,74.918,99.265,111.1z"/>
<path style="fill:#95DB1B;" d="M213.543,153.637c-41.993,9.969-84.95-11.618-103.123-53.204c-3.964,3.238-7.699,6.8-11.155,10.667
	c-1.571,1.757-2.063,4.294-1.264,6.511c16.437,45.6,61.692,69.708,105.556,59.295c19.27-4.575,31.136-20.715,33.623-38.178
	C231.449,145.837,223.482,151.277,213.543,153.637z"/>
<path style="fill:#ABE84B;" d="M369.671,54.289c1.334,0.873,2.101,2.443,1.968,4.032c-2.739,32.674-28.077,56.361-58.559,57.252
	c-25.529,0.746-40.867-30.682-24.571-50.348C307.941,41.774,342.195,36.324,369.671,54.289z"/>
<path style="fill:#95DB1B;" d="M296.349,82.559c17.383-20.978,47.212-28.077,73.871-15.075c0.678-3.001,1.159-6.061,1.419-9.164
	c0.133-1.589-0.633-3.159-1.968-4.032c-27.442-17.943-61.705-12.545-81.162,10.937c-10.222,12.336-7.993,29.295,1.385,40.043
	C288.878,97.501,290.737,89.332,296.349,82.559z"/>
<g>
	<path style="fill:#8DC610;" d="M251.866,88.594c-5.492-24.631-22.619-38.308-22.792-38.444c-3.528-2.769-4.166-7.879-1.411-11.419
		c2.754-3.54,7.838-4.197,11.39-1.455c0.89,0.688,21.891,17.189,28.711,47.772c0.979,4.39-1.786,8.742-6.176,9.721
		C257.231,95.743,252.852,93.015,251.866,88.594z"/>
	<path style="fill:#8DC610;" d="M326.528,181.013c-2.693-3.6-7.797-4.337-11.4-1.644c-0.79,0.591-19.365,14.842-19.365,45.985v25.93
		c0,4.498,3.646,8.144,8.144,8.144s8.144-3.646,8.144-8.144v-25.93c0-22.502,12.233-32.467,12.891-32.986
		C328.494,189.663,329.207,184.595,326.528,181.013z"/>
	<path style="fill:#8DC610;" d="M259.815,226.294c-4.498,0-8.144-3.646-8.144-8.144V87.91c0-47.208,31.295-83.596,32.627-85.122
		c2.958-3.389,8.103-3.736,11.491-0.779c3.385,2.955,3.736,8.094,0.787,11.482l0,0c-0.286,0.33-28.617,33.449-28.617,74.419v130.24
		C267.959,222.648,264.312,226.294,259.815,226.294z"/>
	<path style="fill:#8DC610;" d="M251.707,197.462c-1.801-19.053-11.29-35.433-28.202-48.686
		c-23.119-18.117-53.422-24.679-82.854-23.508c-4.471,0.175-8.282-3.32-8.461-7.815c-0.178-4.495,3.321-8.283,7.815-8.461
		c74.838-2.966,123.404,39.181,127.918,86.936c0.423,4.478-2.864,8.451-7.341,8.875
		C256.076,205.224,252.128,201.917,251.707,197.462z"/>
	<path style="fill:#8DC610;" d="M259.812,143.359c-0.997,0-2.009-0.184-2.992-0.573c-4.183-1.653-6.233-6.385-4.579-10.568
		c19.968-50.512,71.91-64.626,74.112-65.202c4.349-1.141,8.801,1.466,9.941,5.817c1.137,4.346-1.459,8.79-5.801,9.936l0,0
		c-0.46,0.123-46.23,12.752-63.105,55.438C266.123,141.406,263.056,143.359,259.812,143.359z"/>
</g>
<path style="fill:#BC7D4D;" d="M424.517,274.762L424.517,274.762c-3.812-3.92-8.585-6.062-13.51-6.062h-20.068
	c-19.457,0-21.386-29.674-40.843-29.674h-32.972c-4.918,0-9.684-2.136-13.494-6.045l-14.571-14.954
	c-3.809-3.91-8.576-6.045-13.494-6.045c-12.255,0-25.634,0-32.301,0c-4.918,0-9.685,2.136-13.494,6.045L215.2,232.98
	c-3.809,3.91-8.576,6.045-13.494,6.045h-32.972c-19.458,0-21.386,29.674-40.843,29.674h-20.068c-4.925,0-9.698,2.142-13.51,6.062
	l0,0c-7.232,7.437-9.142,18.273-7.097,27.729c10.299,0,334.363,0,344.397,0C433.659,293.035,431.749,282.199,424.517,274.762z"/>
<path style="fill:#AD7147;" d="M178.142,276.684L178.142,276.684c2.424-4.04,5.46-6.247,8.592-6.247h12.762
	c12.514,0,13.51-30.582,25.974-30.582h20.968c11.083,0,15.194-27.872,26.429-27.872c-12.306,0-16.874,0-29.602,0
	c-4.918,0-9.685,2.135-13.494,6.045l-14.57,14.954c-3.809,3.91-8.576,6.045-13.494,6.045h-32.972
	c-19.457,0-21.386,29.674-40.843,29.674h-20.068c-4.925,0-9.698,2.142-13.51,6.062l0,0c-7.232,7.437-9.142,18.273-7.097,27.729
	c9.808,0,73.938,0,86.121,0C172.592,293.455,173.973,283.631,178.142,276.684z"/>
<path style="fill:#3997EE;" d="M480.265,301.405H31.666c-3.262,0-5.887,2.69-5.806,5.951c0.778,31.19,7.922,62.592,21.955,92.254
	C92.32,467.301,168.934,512,256,512c86.937,0,163.452-44.567,207.987-112.089c13.666-28.928,21.223-60.487,22.084-92.541
	C486.159,304.104,483.533,301.405,480.265,301.405z"/>
<path style="fill:#1F7FE8;" d="M326.721,487.367c-115.737,0-213.021-78.969-240.933-185.962H31.666c-3.262,0-5.887,2.69-5.806,5.951
	c0.779,31.19,7.922,62.593,21.955,92.254C92.32,467.301,168.934,512,256,512c42.043,0,81.648-10.424,116.378-28.826
	C357.576,485.918,342.318,487.367,326.721,487.367z"/>
<path style="fill:#32CC65;" d="M216.46,394.836c-2.626-0.619-13.026-13.325-15.393-14.801
	c-18.412-11.416-10.142-7.953-32.219-14.316c-0.944-0.276-0.347-0.103-17.411-10.089c-1.784-1.049-1.492-0.399-22.795-0.598
	c-0.766,0-1.509,0.214-2.168,0.596l-24.809-12.919l-5.369-12.391c-2.983-6.883-9.279-6.009-34.557-16.611
	c0.418-6.268-0.854-10.073,0.982-12.302h-28.27c7.143,15.643,6.756,14.948,7.184,15.53c11.748,15.575,11.176,16.107,13.306,16.916
	c0,0,0.003,0.004,0.005,0.006l23.862,8.842l5.095,11.759c2.538,5.858,6.23,5.104,33.904,20.299c1.583,3.283,3.334,4.655,2.706,7.218
	c-5.072,21.773-4.365,9.693,0.19,30.182c0.383,1.466-0.298-0.047,17.051,23.272c0.972,1.296,0.368,0.486,20.777,12.079
	c2.45,1.374,1.467,1.97,11.21,26.66c0.296,0.78-0.733-0.948,18.796,28.575c6.361,1.787,12.828,3.317,19.385,4.6
	c0.005-3.004,3.748-6.458,8.563-15.353c0.574-0.938,0.22-0.383,6.029-20.993c1.036-3.713,4.322-2.907,18.485-8.456
	c2.733-0.96,2.584-3.131,7.989-12.796c1.397-2.68-0.628-12.849,1.148-15.691l8.62-13.816c2.059-3.296-1.038-5.725-4.721-14.832
	C252.461,402.014,251.332,403.66,216.46,394.836z"/>
<path style="fill:#23B658;" d="M54.941,333.851c0,0,0.003,0.004,0.005,0.006l23.862,8.843l5.095,11.759
	c2.538,5.858,6.23,5.104,33.904,20.299c1.583,3.283,3.334,4.655,2.706,7.218c-5.072,21.773-4.365,9.693,0.19,30.182
	c0.383,1.466-0.298-0.047,17.051,23.272c0.972,1.296,0.368,0.486,20.777,12.079c2.45,1.374,1.467,1.97,11.21,26.66
	c0.296,0.78-0.733-0.948,18.796,28.575c6.361,1.787,12.828,3.317,19.385,4.6c0.005-3.004,3.749-6.458,8.563-15.353
	c0.574-0.938,0.22-0.383,6.029-20.993c0.59-2.114,1.913-2.764,5.554-3.955c-61.505-26.573-110.165-77.228-134.101-140.087
	c-3.952-3.631-12.026-4.776-32.227-13.25c0.418-6.269-0.854-10.073,0.982-12.302H34.451c7.143,15.643,6.756,14.948,7.184,15.53
	C53.384,332.51,52.811,333.042,54.941,333.851z"/>
<path style="fill:#32CC65;" d="M480.326,301.405H329.655c-2.02,0-3.89,1.069-4.927,2.803c-10.745,17.979-13.71,19.687-12.527,24.647
	c5.09,18.896,3.865,22.197,8.061,25.074c20.044,13.237,20.337,15.151,24.522,15.151c14.285,0,26.093,0,39.333,0
	c3.202,0,6.082,1.95,7.271,4.923c2.289,6.304,3.799,7.933,3.4,11.13c-3.863,29.176,0.258,13.624-13.447,42.104
	c-14.574,28.592-11.606,21.585-14.528,31.343c-2.034,6.657,4.978,12.461,11.137,9.219c7.038-3.987-3.472,4.297,40.611-40.191
	c0.898-0.927,21.453-28.957,22.354-29.977c13.726-15.466,4.734-7.315,34.442-30.454c0.964-0.751,1.673-1.789,2.006-2.965
	c5.377-18.965,8.21-38.21,8.701-56.925C486.149,304.063,483.551,301.405,480.326,301.405z"/>
<g>
</g>
<g>
</g>
<g>
</g>
<g>
</g>
<g>
</g>
<g>
</g>
<g>
</g>
<g>
</g>
<g>
</g>
<g>
</g>
<g>
</g>
<g>
</g>
<g>
</g>
<g>
</g>
<g>
</g>
</svg>
