<svg id="Capa_1" enable-background="new 0 0 512.007 512.007" height="512" viewBox="0 0 512.007 512.007" width="512" xmlns="http://www.w3.org/2000/svg"><g><g><path d="m258.113 22.017c-135.305-1.165-245.935 107.577-247.1 242.881s107.577 245.935 242.881 247.1c4.7.041 9.367-.065 14.003-.286l22.553-6.5 4.86 3.644c115.763-18.674 204.64-118.542 205.684-239.74 1.166-135.303-107.576-245.934-242.881-247.099z" fill="#659bf2"/></g><g><ellipse cx="256.004" cy="232" fill="#5088ea" rx="192.058" ry="190"/></g><g><path d="m409.367 7.148-239.784 45.744 30.867 309.022 285.212-122.886z" fill="#fcf1d4"/></g><g><path d="m212.114 356.888 145.783-201.678c54.816 37.291 86.499 76.029 100.404 95.607l27.338-11.779c-43.929-53.664-88.69-89.954-115.174-109.098l42.003-113.32.007-.024-3.109-9.448-9.806 1.871-78.727 91.696c-29.591-13.876-83.028-35.412-151.248-47.797l2.959 29.62c23.865 2.665 73.108 11.584 132.306 41.434l-105.663 225.304z" fill="#f2e1bb"/></g><g><path d="m346.543 113.831 62.616-106.331.064-.325-239.64 45.716c25.9 4.142 106.91 19.689 176.96 60.94z" fill="#fcb332"/></g><g><path d="m346.543 113.831 62.616-106.331.064-.324-9.662 1.843-78.299 91.197c8.507 4.194 16.971 8.722 25.281 13.615z" fill="#fb8b24"/></g><g><path d="m485.648 239.009c-16.2-20.661-69.077-83.939-139.105-125.178l-145.989 247.906.096.091 284.98-122.786z" fill="#2fad4f"/></g><g><path d="m212.114 356.888 145.783-201.678c54.816 37.291 86.499 76.029 100.404 95.607l21.609-9.31 5.72-2.464.005-.009c-68.544-83.734-139.114-125.166-139.114-125.166l-140.871 239.214z" fill="#2b8f49"/></g><g><g><path d="m487.53 246.271c-2.799.724-5.887-.214-7.785-2.634-14.577-18.593-67.538-82.433-137.009-123.343-69.475-40.913-151.005-56.265-174.339-59.996-4.09-.654-6.876-4.499-6.221-8.59.654-4.089 4.5-6.874 8.59-6.221 23.989 3.836 107.839 19.635 179.582 61.882 71.737 42.247 126.213 107.899 141.201 127.014 2.556 3.26 1.986 7.975-1.274 10.53-.839.656-1.775 1.107-2.745 1.358z" fill="#682316"/></g></g><g><g><path d="m202.432 368.998c-1.858.481-3.9.253-5.685-.798-3.569-2.103-4.759-6.699-2.657-10.269l208.606-354.236c2.103-3.568 6.7-4.758 10.269-2.657 3.569 2.103 4.759 6.699 2.657 10.269l-208.605 354.236c-1.052 1.784-2.727 2.974-4.585 3.455z" fill="#a03c32"/></g></g><g><path d="m134.829 159.779c24.745 2.524 45.25 18.358 66.959 35.123 21.558 16.647 43.849 33.861 71.454 37.99 3.977.596 7.941.887 11.881.887 26.529-.002 51.62-13.245 67.433-36.24 17.844-25.95 19.57-58.627 4.504-85.278l-13.059 7.382c12.407 21.946 10.984 47.89-3.806 69.397-14.885 21.646-39.691 32.759-64.734 29.019-23.745-3.553-43.544-18.842-64.505-35.028-22.419-17.313-45.602-35.215-74.605-38.173-32.241-3.298-64.846 14.669-79.302 43.67-14.454 29-9.162 65.85 12.868 89.611 22.666 24.445 56.358 30.617 80.631 31.49 16.532.597 33.073-.85 49.066-2.246 11.236-.981 22.854-1.996 34.188-2.262 32.26-.762 56.549 5.325 74.202 18.603 27.601 20.759 38.987 63.676 27.072 102.048-9.699 31.238-32.295 60.128-67.179 85.941 9.281-.443 18.427-1.406 27.413-2.855 27.138-23.942 45.294-50.302 54.092-78.638 6.431-20.712 7.114-43.636 1.924-64.549-5.615-22.628-17.479-41.278-34.307-53.935-20.453-15.383-47.811-22.46-83.57-21.61-11.811.277-23.671 1.313-35.141 2.314-15.541 1.357-31.613 2.761-47.223 2.199-21.433-.771-51.005-6.028-70.17-26.699-17.595-18.977-21.986-49.56-10.443-72.721 11.546-23.161 38.611-38.066 64.357-35.44z" fill="#fff"/></g><g><g><path d="m351.531 133.23c-4.01 1.038-8.103-1.372-9.14-5.383l-6.262-24.202c-1.038-4.01 1.372-8.103 5.383-9.14 4.01-1.038 8.103 1.372 9.14 5.383l6.262 24.202c1.037 4.01-1.373 8.102-5.383 9.14z" fill="#682316"/></g><g><path d="m327.159 118.878c-1.038-4.01 1.372-8.103 5.383-9.14l24.202-6.262c4.01-1.038 8.103 1.372 9.14 5.383 1.038 4.01-1.372 8.103-5.383 9.14l-24.202 6.262c-4.011 1.037-8.103-1.373-9.14-5.383z" fill="#a03c32"/></g></g></g></svg>