<svg id="Capa_1" enable-background="new 0 0 512 512" height="512" viewBox="0 0 512 512" width="512" xmlns="http://www.w3.org/2000/svg"><g><g><path d="m85.003 446.5h341.994c52.176-46.866 85.003-114.845 85.003-190.5 0-141.385-114.615-256-256-256s-256 114.615-256 256c0 75.655 32.827 143.634 85.003 190.5z" fill="#85faf4"/></g><g><path d="m99.424 161.976c33.635 22.288 98.824 78.717 142.588 200.467l-55.314 11.214s-5.285-85.353-94.033-204.511c-3.355-4.504 2.078-10.272 6.759-7.17z" fill="#389f4d"/></g><g><path d="m5.406 335.762c29.585 5.401 90.806 24.934 156.515 95.509l-34.608 23.914s-28.666-56.928-124.436-112.527c-3.618-2.101-1.588-7.647 2.529-6.896z" fill="#389f4d"/></g><g><path d="m506.594 335.762c-29.585 5.401-90.806 24.934-156.515 95.509l34.608 23.914s28.666-56.928 124.436-112.527c3.618-2.101 1.588-7.647-2.529-6.896z" fill="#389f4d"/></g><g><path d="m321.286 36.718c-22.186 33.703-59.991 111.192-52.448 240.349l55.276-11.4s-28.645-80.577 6.203-225.008c1.318-5.458-5.944-8.63-9.031-3.941z" fill="#389f4d"/></g><g><path d="m401.957 136.772c-28.66 28.402-81.634 96.428-100.891 224.364l56.439.246s-11.411-84.752 52.477-218.891c2.414-5.07-4.037-9.672-8.025-5.719z" fill="#60b550"/></g><g><path d="m222.907 509.875c-35.156-140.259-120.083-192.539-158.502-209.476-4.872-2.148-9.268 3.832-5.776 7.852 60.756 69.961 84.494 145.2 92.989 181.559l40.049-6.144z" fill="#60b550"/></g><g><path d="m449.595 300.399c-38.392 16.926-123.227 69.146-158.428 209.185l39.309-36.584 32.147 15.793c8.696-36.729 32.551-111.223 92.747-180.54 3.491-4.021-.902-10.002-5.775-7.854z" fill="#60b550"/></g><g><path d="m193.959 2.145c32.273 45.671 93.759 143.295 97.208 228.446l-58.317 99.258s-2.205-179.793-47.733-323.31c-1.726-5.442 5.547-9.057 8.842-4.394z" fill="#85d249"/></g><g><path d="m85.609 27.284c54.919 52.932 176.027 191.148 194.033 394.789l-51.645 38.54s-40.878-245.266-150.143-427.164c-3.005-5.001 3.555-10.213 7.755-6.165z" fill="#60b550"/></g><g><path d="m262.179 482.725c-52.623-196.282-166.51-279.111-216.979-307.142-4.937-2.742-9.901 3.496-6.145 7.713 92.03 103.351 131.014 250.242 144.868 318.101 8.387 2.494 16.956 4.566 25.678 6.202z" fill="#85d249"/></g><g><path d="m401.901 24.29c-3.749 3.795-7.807 8.056-12.121 12.8-56.69 62.29-157.51 207.65-180.2 470.52 15.36 2.88 31.22 4.39 47.42 4.39 1.836 0 3.665-.026 5.492-.064l-.004-.018 31.492-21.75c10.697-96.54 40.995-313.358 107.99-445.188 2.564-5.045 5.182-9.965 7.855-14.75 2.839-5.081-3.833-10.081-7.924-5.94z" fill="#a3ea6e"/></g><g><path d="m262.488 511.918c23.875-.594 46.935-4.464 68.757-11.165 7.373-42.809 38.052-198.907 109.912-311.497 3.086-4.836-3.04-10.2-7.432-6.511-44.865 37.683-138.611 137.029-171.237 329.173z" fill="#85d249"/></g><g><path d="m483.426 393.957c5.29-.257 7.346 6.774 2.721 9.355-13.826 7.715-33.54 20.078-51.997 36.538-.02.02-.05.05-.08.07-2.38 2.13-4.74 4.32-7.06 6.58-30.61 27.5-67.89 47.73-109.12 57.96 12.69-24.21 59.17-99.04 153.15-109.51 4.041-.454 8.169-.788 12.386-.993z" fill="#a3ea6e"/></g><g><path d="m194.11 504.46c-41.23-10.23-78.51-30.46-109.12-57.96-2.32-2.26-4.68-4.45-7.06-6.58-.03-.02-.06-.05-.08-.07-18.457-16.46-38.17-28.822-51.997-36.538-4.625-2.581-2.569-9.612 2.721-9.355 4.217.205 8.345.539 12.386.993 93.98 10.47 140.46 85.3 153.15 109.51z" fill="#a3ea6e"/></g></g></svg>