<svg id="Color" enable-background="new 0 0 24 24" height="512" viewBox="0 0 24 24" width="512" xmlns="http://www.w3.org/2000/svg"><path d="m12 10.353c-.414 0-.75-.336-.75-.75v-4.895c0-.414.336-.75.75-.75s.75.336.75.75v4.895c0 .414-.336.75-.75.75z" fill="#eceff1"/><path d="m12 20.143c-.414 0-.75-.336-.75-.75v-4.895c0-.414.336-.75.75-.75s.75.336.75.75v4.895c0 .414-.336.75-.75.75z" fill="#eceff1"/><g fill="#cfd8dc"><path d="m12.469.206c-.273-.22-.664-.22-.937 0l-2.448 1.958c-.178.142-.281.357-.281.586s.104.443.281.585l2.447 1.958c.137.11.303.165.469.165s.332-.055.469-.165l2.447-1.958c.178-.142.281-.357.281-.585s-.104-.443-.281-.585z"/><path d="m12.469 18.807c-.273-.22-.664-.22-.937 0l-2.447 1.958c-.178.142-.281.357-.281.585s.104.443.281.585l2.447 1.958c.138.11.303.165.469.165s.331-.055.469-.165l2.447-1.958c.178-.142.281-.357.281-.585s-.104-.443-.281-.585z"/><path d="m12 8.395c-.166 0-.332-.055-.469-.165l-2.447-1.958c-.323-.259-.376-.73-.117-1.054.261-.324.732-.375 1.055-.117l1.978 1.583 1.978-1.583c.324-.258.795-.208 1.055.117.259.324.206.795-.117 1.054l-2.447 1.958c-.137.11-.303.165-.469.165z"/><path d="m14.447 19.164c-.165 0-.33-.054-.469-.165l-1.978-1.583-1.979 1.583c-.322.259-.794.208-1.055-.117-.259-.324-.206-.795.117-1.054l2.447-1.958c.273-.22.664-.22.937 0l2.447 1.958c.323.259.376.73.117 1.054-.146.185-.364.282-.584.282z"/></g><path d="m11.25 8.005v.936c.241-.058.492-.089.75-.089v-.457c-.166 0-.332-.055-.469-.165zm0-2.937v1.016l.75.6v-1.226c-.166 0-.332-.055-.469-.165z" fill="#cdd0d2"/><path d="m12 17.416-.75.6v1.016l.281-.225c.137-.11.303-.165.469-.165zm-.75-2.257v.936l.281-.225c.137-.11.303-.165.469-.165v-.458c-.258.001-.509-.03-.75-.088z" fill="#cdd0d2"/><path d="m12 .041c-.166 0-.332.055-.469.165l-2.447 1.958c-.178.142-.281.357-.281.586s.104.443.281.585l2.166 1.733.281.225c.137.11.303.165.469.165z" fill="#b4bcc0"/><path d="m12 18.642c-.166 0-.332.055-.469.165l-.281.225-2.166 1.733c-.178.142-.281.357-.281.585s.104.443.281.585l2.447 1.958c.138.11.303.165.469.165z" fill="#b4bcc0"/><path d="m9.553 4.936c-.22 0-.438.096-.587.281-.258.325-.205.796.118 1.055l2.166 1.733.281.225c.137.11.303.165.469.165v-1.71l-.75-.6-1.229-.983c-.138-.112-.303-.166-.468-.166z" fill="#b4bcc0"/><path d="m12 15.705c-.166 0-.332.055-.469.165l-.281.225-2.166 1.733c-.323.259-.376.73-.117 1.054.149.185.367.282.587.282.165 0 .33-.054.468-.165l1.229-.983.75-.6z" fill="#b4bcc0"/><path d="m9.88 11.576c-.127 0-.256-.032-.374-.101l-4.239-2.447c-.359-.207-.482-.665-.275-1.024s.664-.484 1.025-.274l4.239 2.447c.358.207.481.666.274 1.024-.138.241-.39.375-.65.375z" fill="#eceff1"/><path d="m18.357 16.471c-.127 0-.256-.032-.374-.101l-4.239-2.447c-.358-.207-.481-.666-.274-1.024s.664-.483 1.024-.274l4.239 2.447c.358.207.481.666.274 1.024-.138.241-.39.375-.65.375z" fill="#eceff1"/><path d="m5.544 4.631c-.196-.114-.435-.131-.648-.049l-2.919 1.14c-.327.128-.521.465-.468.812l.471 3.098c.034.225.169.423.366.537.115.067.245.101.375.101.092 0 .185-.017.272-.051l2.92-1.141c.328-.128.523-.465.47-.812l-.473-3.099c-.034-.225-.169-.422-.366-.536z" fill="#cfd8dc"/><path d="m21.653 13.931c-.197-.114-.436-.133-.647-.049l-2.92 1.141c-.327.128-.521.465-.469.812l.473 3.099c.034.225.169.422.366.536.115.067.245.101.375.101.093 0 .185-.017.273-.051l2.919-1.141c.326-.128.521-.465.468-.811l-.472-3.099c-.034-.226-.168-.424-.366-.538z" fill="#cfd8dc"/><path d="m5.266 11.738c-.3 0-.583-.181-.698-.477-.151-.386.039-.821.425-.972l2.36-.922-.381-2.506c-.063-.409.218-.792.628-.854.42-.061.792.22.854.629l.472 3.099c.053.347-.142.684-.468.811l-2.919 1.141c-.09.034-.183.051-.273.051z" fill="#cfd8dc"/><path d="m16.286 18.101c-.364 0-.684-.266-.74-.637l-.472-3.098c-.053-.347.142-.684.468-.812l2.919-1.141c.388-.148.821.04.972.426s-.039.821-.425.972l-2.36.922.381 2.505c.062.409-.219.792-.628.854z" fill="#cfd8dc"/><path d="m8.832 10.225c-.083.142-.212.257-.374.321l-.336.131 1.383.799c.118.068.247.101.374.101.259 0 .51-.134.649-.373zm-2.544-1.466c-.083.141-.212.255-.374.319l-.335.131.88.508.889-.347z" fill="#cdd0d2"/><path d="m16.652 14.731-.004.002.144.95.88.508-.054-.356c-.027-.175.01-.348.094-.493zm-3.182-1.833-.001.001c-.207.359-.084.817.274 1.024l1.384.799-.054-.357c-.027-.174.009-.346.093-.49z" fill="#cdd0d2"/><path d="m1.595 6.055c-.079.142-.112.309-.086.479l.471 3.098c.034.225.169.423.366.537.115.067.245.101.375.101.092 0 .185-.017.272-.051l2.585-1.01.335-.131c.163-.064.292-.178.375-.319z" fill="#b4bcc0"/><path d="m17.712 15.342c-.085.145-.121.317-.094.493l.054.356.418 2.743c.034.225.169.422.366.536.115.067.245.101.375.101.093 0 .185-.017.273-.051l2.919-1.141c.166-.065.298-.185.381-.332z" fill="#b4bcc0"/><path d="m7.347 9.369-.889.347-1.466.573c-.386.151-.576.586-.425.972.115.296.398.477.698.477.091 0 .184-.017.273-.051l2.583-1.01.336-.131c.162-.064.291-.179.374-.321z" fill="#b4bcc0"/><path d="m15.167 13.876c-.084.144-.12.316-.093.49l.054.357.417 2.741c.057.372.376.637.74.637l.114-.008c.409-.062.69-.445.628-.854l-.236-1.556-.144-.95.004-.002z" fill="#b4bcc0"/><path d="m5.643 16.471c-.26 0-.512-.134-.65-.375-.207-.359-.084-.817.274-1.024l4.239-2.447c.359-.209.818-.084 1.024.274.207.359.084.817-.274 1.024l-4.239 2.447c-.119.069-.247.101-.374.101z" fill="#eceff1"/><path d="m14.12 11.576c-.26 0-.512-.134-.65-.375-.207-.359-.084-.817.274-1.024l4.239-2.447c.36-.209.817-.084 1.024.274.207.359.084.817-.274 1.024l-4.239 2.447c-.118.069-.247.101-.374.101z" fill="#eceff1"/><path d="m5.914 15.022-2.92-1.141c-.212-.082-.45-.065-.647.049s-.332.312-.366.537l-.472 3.099c-.053.347.142.684.468.812l2.919 1.141c.089.034.181.051.273.051.13 0 .26-.034.375-.101.197-.114.332-.311.366-.536l.473-3.099c.053-.347-.142-.684-.469-.812z" fill="#cfd8dc"/><path d="m18.086 9.078 2.92 1.141c.088.034.18.051.272.051.13 0 .26-.034.375-.101.197-.114.332-.311.366-.537l.472-3.099c.053-.347-.142-.684-.468-.812l-2.919-1.141c-.214-.082-.451-.065-.648.049s-.332.311-.366.536l-.473 3.099c-.053.349.142.686.469.814z" fill="#cfd8dc"/><path d="m7.714 18.101-.114-.008c-.409-.063-.69-.445-.628-.855l.381-2.505-2.36-.922c-.386-.151-.576-.586-.425-.972.15-.386.587-.574.972-.426l2.919 1.141c.326.128.521.465.468.811l-.472 3.098c-.058.372-.377.638-.741.638z" fill="#cfd8dc"/><path d="m18.734 11.738c-.091 0-.184-.017-.273-.051l-2.919-1.141c-.326-.128-.521-.465-.468-.811l.472-3.099c.062-.41.442-.683.854-.629.409.063.69.445.628.854l-.381 2.506 2.36.922c.386.151.576.586.425.972-.115.296-.398.477-.698.477z" fill="#cfd8dc"/><path d="m7.341 14.809-1.022.59c.063.132.087.283.064.435l-.054.356.88-.508zm3.217-1.858-1.696.979c.063.132.087.282.064.435l-.054.357 1.384-.799c.341-.197.469-.622.302-.972z" fill="#cdd0d2"/><path d="m15.197 10.272-1.696.979c.143.209.378.325.619.325.127 0 .256-.032.374-.101l1.383-.799-.336-.131c-.143-.055-.261-.152-.344-.273zm2.543-1.468-1.023.591.824.322.88-.508-.335-.131c-.144-.057-.263-.154-.346-.274z" fill="#cdd0d2"/><path d="m6.319 15.399-4.679 2.702-.005.006c.083.119.2.215.342.27l2.919 1.141c.089.034.181.051.273.051.13 0 .26-.034.375-.101.197-.114.332-.311.366-.536l.418-2.743.054-.356c.024-.151-.001-.302-.063-.434z" fill="#b4bcc0"/><path d="m22.427 6.098-4.687 2.706c.083.121.201.218.345.274l.335.131 2.585 1.01c.088.034.18.051.272.051.13 0 .26-.034.375-.101.197-.114.332-.311.366-.537l.472-3.099c.024-.152 0-.303-.063-.435z" fill="#b4bcc0"/><path d="m8.862 13.931-1.521.878-.133.874-.236 1.556c-.063.408.218.791.628.854l.114.008c.364 0 .684-.266.74-.637l.417-2.741.054-.357c.024-.153-.001-.304-.063-.435z" fill="#b4bcc0"/><path d="m16.717 9.394-1.52.878c.083.12.201.217.345.274l.336.131 2.583 1.01c.09.035.183.051.273.051.3 0 .583-.181.698-.477.151-.386-.039-.821-.425-.972l-1.466-.573z" fill="#b4bcc0"/><path d="m12 8.853c-1.763 0-3.197 1.434-3.197 3.197s1.435 3.198 3.197 3.198c1.763 0 3.197-1.435 3.197-3.198s-1.434-3.197-3.197-3.197z" fill="#cfd8dc"/><path d="m12 8.853c-.258 0-.509.031-.75.089-1.402.338-2.447 1.603-2.447 3.108s1.045 2.77 2.447 3.109c.241.058.492.089.75.089z" fill="#b4bcc0"/></svg>