<svg id="Layer_1" height="512" viewBox="0 0 512 512" width="512" xmlns="http://www.w3.org/2000/svg" data-name="Layer 1"><path d="m248 77.213h-16v-42.187a19.048 19.048 0 0 0 -19.026-19.026h-12.974v-16h12.974a35.066 35.066 0 0 1 35.026 35.026z" fill="#703908"/><path d="m280 77.213h-16v-42.187a35.066 35.066 0 0 1 35.026-35.026h12.974v16h-12.974a19.048 19.048 0 0 0 -19.026 19.026z" fill="#703908"/><path d="m224 111.41v-43.049a62.065 62.065 0 0 0 -40 58.561v9.078h15.41a24.59 24.59 0 0 0 24.59-24.59z" fill="#a05307"/><path d="m288 69.239v42.171a24.59 24.59 0 0 0 24.59 24.59h15.41v-9.079c0-25.809-16.46-47.977-40-57.682z" fill="#a05307"/><path d="m288 111.41v-42.171a69.725 69.725 0 0 0 -26.622-5.239h-13.378a66.938 66.938 0 0 0 -24 4.361v43.05a24.59 24.59 0 0 1 -24.59 24.589h-15.41v296c0 36.229 27.771 56 64 56h16c36.229 0 64-19.771 64-56v-296h-15.41a24.59 24.59 0 0 1 -24.59-24.59z" fill="#efab78"/><path d="m184 126.921v305.079c0 27.668 16.207 45.724 40 52.719v-416.358a62.065 62.065 0 0 0 -40 58.56z" fill="#fcf4ed" opacity=".3"/><path d="m248 488h16v24h-16z" fill="#703908"/><path d="m191.505 384h130.649v16h-130.649z" fill="#703908"/><path d="m127.419 424h-13.468c-26.722 0-19.172-122.589 6.049-160 40.511-60.09 105.982-86.477 136-104v135.419a128.581 128.581 0 0 1 -128.581 128.581z" fill="#c16808"/><path d="m384.581 424h13.468c26.722 0 19.172-122.589-6.049-160-40.511-60.09-105.982-86.477-136-104v135.419a128.581 128.581 0 0 0 128.581 128.581z" fill="#a05307"/><path d="m256 160c-30.018 17.523-95.489 43.91-136 104-25.221 37.411-32.771 160-6.049 160h12.906l17.143-56s16-112 112-208z" fill="#fcf4ed" opacity=".3"/><path d="m256 160v135.419a128.577 128.577 0 0 0 124.251 128.5c-5.869-26.719-12.251-55.919-12.251-55.919s-16-112-112-208z" fill="#824208"/><path d="m325.97 448a61.294 61.294 0 0 0 2.03-16h-144a61.294 61.294 0 0 0 2.03 16z" fill="#703908"/></svg>