<svg id="Capa_1" enable-background="new 0 0 502 502" height="512" viewBox="0 0 502 502" width="512" xmlns="http://www.w3.org/2000/svg" xmlns:xlink="http://www.w3.org/1999/xlink"><linearGradient id="SVGID_1_" gradientUnits="userSpaceOnUse" x1="154.14" x2="154.14" y1="502" y2="0"><stop offset=".0223" stop-color="#8959c3"/><stop offset="1" stop-color="#a27ccf"/></linearGradient><linearGradient id="SVGID_2_" gradientUnits="userSpaceOnUse" x1="251.005" x2="486.835" y1="251" y2="251"><stop offset=".0212" stop-color="#ffb1db"/><stop offset="1" stop-color="#fd86c8"/></linearGradient><g><path d="m251.005 15.36 42.111 241.017-42.111 205.403c-22.44 24.71-54.83 40.22-90.83 40.22-67.74 0-122.66-54.91-122.66-122.65 0-10.29 1.27-20.28 3.66-29.83-16.11-16.88-26.01-39.75-26.01-64.93 0-37.94 22.48-70.64 54.85-85.5-9.25-14.56-14.61-31.83-14.61-50.36 0-50.42 39.68-91.57 89.52-93.93 4.87-31.05 31.74-54.8 64.15-54.8 15.99 0 30.61 5.79 41.93 15.36z" fill="url(#SVGID_1_)"/><path d="m460.825 349.52c2.39 9.55 3.66 19.54 3.66 29.83 0 67.74-54.91 122.65-122.65 122.65-36.01 0-68.39-15.51-90.83-40.22v-446.42c11.31-9.57 25.94-15.36 41.92-15.36 32.42 0 59.28 23.75 64.15 54.8 49.84 2.36 89.53 43.51 89.53 93.93 0 18.53-5.36 35.8-14.61 50.36 32.36 14.86 54.84 47.56 54.84 85.5 0 25.18-9.89 48.05-26.01 64.93z" fill="url(#SVGID_2_)"/><path d="m170.803 117.415c-16.166-11.812-26.668-30.913-26.668-52.468 0-3.451.275-6.838.794-10.144-5.284.249-10.452.938-15.472 2.025-.27 2.67-.41 5.379-.41 8.119 0 26.499 12.951 50.025 32.851 64.598 2.971 2.176 7.101 1.806 9.705-.798 3.234-3.236 2.894-8.633-.8-11.332z" fill="#8048be"/><path d="m191.719 372.969c-1.815-6.956-4.438-13.561-7.779-19.722 12.238-13.282 21.038-29.831 24.795-48.273.832-4.082-1.804-8.067-5.887-8.898-4.081-.837-8.066 1.803-8.898 5.886-7.611 37.36-39.47 65.662-77.474 68.824-4.152.346-7.238 3.992-6.892 8.144.328 3.939 3.626 6.918 7.51 6.918.21 0 .421-.008.634-.026 20.437-1.701 39.349-9.604 54.721-21.871 1.932 4.079 3.507 8.363 4.671 12.826 4.872 18.669 2.182 38.118-7.574 54.764-2.107 3.594-.9 8.216 2.694 10.323 3.578 2.096 8.206.919 10.324-2.695 11.793-20.12 15.045-43.632 9.155-66.2z" fill="#8048be"/><g><path d="m378.424 464.84c-2.732-4.837-1.027-10.973 3.81-13.706 7.597-4.292 14.439-9.721 20.336-16.137 3.758-4.09 10.123-4.359 14.213-.6s4.359 10.123.6 14.213c-7.324 7.97-15.821 14.712-25.253 20.041-4.854 2.741-10.982 1.009-13.706-3.811z" fill="#fdc6e3"/></g><g><path d="m424.674 421.664c-5.191-1.979-7.793-7.793-5.812-12.983 1.173-3.075 2.174-6.28 2.976-9.527 1.332-5.392 6.783-8.686 12.178-7.353 5.393 1.332 8.685 6.784 7.353 12.178-.998 4.04-2.247 8.034-3.711 11.873-1.984 5.2-7.807 7.791-12.984 5.812z" fill="#fdc6e3"/></g><g><path d="m86.548 134.466c-5.285-1.712-8.181-7.385-6.469-12.67 2.922-9.018 7.412-17.188 13.346-24.283 3.564-4.262 9.907-4.828 14.169-1.263 4.262 3.564 4.827 9.908 1.263 14.169-4.213 5.038-7.546 11.116-9.64 17.579-1.714 5.292-7.392 8.179-12.669 6.468z" fill="#d3c1e7"/></g><g><path d="m84.355 183.477c-3.13-6.286-5.383-13.043-6.696-20.085-1.019-5.461 2.583-10.714 8.044-11.733 5.462-1.017 10.715 2.583 11.733 8.044.972 5.209 2.629 10.191 4.928 14.807 2.476 4.973.452 11.012-4.521 13.488-4.952 2.466-11.002.475-13.488-4.521z" fill="#d3c1e7"/></g><path d="m133.476 241.408c-26.664-4.559-49.497-20.34-63.462-42.316-4.591 2.108-8.984 4.573-13.142 7.362 16.176 25.845 42.868 44.456 74.035 49.811 3.61.62 7.155-1.406 8.409-4.848 1.614-4.429-1.193-9.214-5.84-10.009z" fill="#8048be"/><g fill="#fd75be"><path d="m331.201 117.415c16.166-11.812 26.668-30.913 26.668-52.468 0-3.451-.275-6.838-.794-10.144 5.284.249 10.452.938 15.472 2.025.27 2.67.41 5.379.41 8.119 0 26.499-12.951 50.025-32.851 64.598-2.971 2.176-7.101 1.806-9.705-.798-3.234-3.236-2.893-8.633.8-11.332z"/><path d="m319.441 439.172c2.118 3.613 6.746 4.791 10.324 2.695 3.594-2.107 4.801-6.729 2.694-10.323-9.756-16.646-12.446-36.095-7.574-54.764 1.165-4.463 2.739-8.747 4.671-12.826 15.371 12.266 34.284 20.17 54.721 21.871.213.018.424.026.634.026 3.884 0 7.182-2.979 7.51-6.918.346-4.152-2.74-7.799-6.892-8.144-38.004-3.162-69.863-31.464-77.474-68.824-.833-4.083-4.818-6.723-8.898-5.886-4.083.831-6.718 4.815-5.887 8.898 3.757 18.442 12.557 34.991 24.795 48.273-3.341 6.16-5.964 12.766-7.779 19.722-5.891 22.565-2.639 46.077 9.155 66.2z"/><path d="m368.528 241.408c26.664-4.559 49.497-20.34 63.462-42.316 4.591 2.108 8.984 4.573 13.142 7.362-16.176 25.845-42.868 44.456-74.035 49.811-3.61.62-7.155-1.406-8.409-4.848-1.614-4.429 1.193-9.214 5.84-10.009z"/></g><g><ellipse cx="146.762" cy="212.254" fill="#fd75be" rx="17.716" ry="14.237"/><ellipse cx="355.242" cy="212.254" fill="#fd75be" rx="17.716" ry="14.237"/><circle cx="177.134" cy="177.125" fill="#fff" r="35.129"/><circle cx="324.87" cy="177.125" fill="#fff" r="35.129"/><g fill="#383842"><g><circle cx="177.134" cy="177.125" r="20.937"/><circle cx="324.87" cy="177.125" r="20.937"/></g><path d="m251.002 212.434c-5.999 0-11.999-2.269-16.893-6.807-2.025-1.877-2.145-5.041-.267-7.066s5.042-2.145 7.066-.267c5.944 5.511 14.245 5.511 20.188 0 2.024-1.876 5.188-1.759 7.065.267 1.878 2.025 1.759 5.188-.267 7.066-4.893 4.539-10.893 6.807-16.892 6.807z"/></g></g></g></svg>