<?xml version="1.0" encoding="iso-8859-1"?>
<!-- Generator: Adobe Illustrator 19.0.0, SVG Export Plug-In . SVG Version: 6.00 Build 0)  -->
<svg version="1.1" id="Layer_1" xmlns="http://www.w3.org/2000/svg" xmlns:xlink="http://www.w3.org/1999/xlink" x="0px" y="0px"
	 viewBox="0 0 512 512" style="enable-background:new 0 0 512 512;" xml:space="preserve">
<circle style="fill:#F4E3C3;" cx="256" cy="256" r="256"/>
<path style="fill:#FED8B2;" d="M500.226,332.943L350.968,183.686l3.117,15.146L252.842,97.589l-43.089,134.818l-48.721-48.721
	l2.208,27.439l-55.898,163.063L244.9,511.745c3.682,0.157,7.38,0.253,11.1,0.253C370.574,512,467.559,436.729,500.226,332.943z"/>
<path style="fill:#FC6F58;" d="M85.276,320.748c0-41.837,75.755-137.063,75.755-137.063s75.755,95.223,75.755,137.063
	s-33.916,75.755-75.755,75.755S85.276,362.586,85.276,320.748z"/>
<path style="fill:#F7CF77;" d="M161.228,314.909c0,0,1.845-22.7-14.479-50.759c0,0-37.474,43.639-33.53,78.7
	c2.951,26.241,21.407,47.814,47.814,47.814s46.22-21.456,47.814-47.814c1.798-29.701-10.064-68.496-43.732-92.474
	C165.112,250.377,178.257,301.901,161.228,314.909z"/>
<path style="fill:#F1543F;" d="M275.213,320.748c0-41.837,75.755-137.063,75.755-137.063s75.755,95.223,75.755,137.063
	s-33.916,75.755-75.755,75.755S275.213,362.586,275.213,320.748z"/>
<path style="fill:#FFD15D;" d="M351.165,314.909c0,0,1.845-22.7-14.479-50.759c0,0-37.474,43.639-33.53,78.7
	c2.951,26.241,21.407,47.814,47.814,47.814c26.407,0,46.22-21.456,47.814-47.814c1.798-29.701-10.064-68.496-43.732-92.474
	C355.05,250.377,368.195,301.901,351.165,314.909z"/>
<path style="fill:#D83E20;" d="M140.064,301.635c0-62.285,112.778-204.047,112.778-204.047S365.62,239.351,365.62,301.635
	s-50.493,112.778-112.778,112.778S140.064,363.92,140.064,301.635z"/>
<path style="fill:#C1321F;" d="M365.62,301.635c0-60.49-106.36-195.927-112.492-203.685v316.456
	C315.28,414.249,365.62,363.823,365.62,301.635z"/>
<path style="fill:#FFD15D;" d="M253.133,295.796c0,0,2.746-33.795-21.556-75.564c0,0-55.787,64.965-49.917,117.16
	c4.393,39.065,31.87,71.18,71.182,71.18s68.806-31.941,71.182-71.18c2.676-44.216-14.981-101.972-65.105-137.666
	C258.919,199.727,278.487,276.43,253.133,295.796z"/>
<path style="fill:#F9B54C;" d="M258.919,199.727c0,0,19.57,76.703-5.784,96.07c0,0,0.212-2.632-0.007-7.325v120.094
	c39.169-0.155,68.527-32.03,70.896-71.173C326.699,293.176,309.041,235.42,258.919,199.727z"/>
<g>
</g>
<g>
</g>
<g>
</g>
<g>
</g>
<g>
</g>
<g>
</g>
<g>
</g>
<g>
</g>
<g>
</g>
<g>
</g>
<g>
</g>
<g>
</g>
<g>
</g>
<g>
</g>
<g>
</g>
</svg>
