<svg height="512" viewBox="0 0 512 512" width="512" xmlns="http://www.w3.org/2000/svg"><g id="flat"><path d="m288 109.888v-37.888h-64v37.888a70 70 0 0 1 -17.1 45.845l-80.695 93.107a20 20 0 0 0 -4.595 16.5l35.528 206.06a20 20 0 0 0 19.709 16.6h158.306a20 20 0 0 0 19.709-16.6l35.528-206.063a20 20 0 0 0 -4.595-16.5l-80.695-93.104a70 70 0 0 1 -17.1-45.845z" fill="#6ee7f5"/><path d="m390.39 265.34-35.53 206.06a20 20 0 0 1 -19.71 16.6h-14.68a20 20 0 0 0 19.71-16.6l35.53-206.06a20 20 0 0 0 -4.6-16.5l-80.69-93.11a69.974 69.974 0 0 1 -17.1-45.84v-37.89h14.68v37.89a69.974 69.974 0 0 0 17.1 45.84l80.69 93.11a20 20 0 0 1 4.6 16.5z" fill="#c4f8ff"/><path d="m388.9 273.97-34.04 197.43a20 20 0 0 1 -19.71 16.6h-14.68a20 20 0 0 0 19.71-16.6l34.25-198.61a112.144 112.144 0 0 0 14.47 1.18z" fill="#c4f8ff"/><path d="m388.9 273.97-34.04 197.43a20 20 0 0 1 -19.71 16.6h-158.3a20 20 0 0 1 -19.71-16.6l-35.53-206.06a19.937 19.937 0 0 1 1.34-11.31c42.4.85 43.39 19.97 87.71 19.97 45.34 0 45.34-20 90.67-20 44.28 0 45.32 19.08 87.57 19.97z" fill="#6ee7f5"/><path d="m388.9 273.97-34.04 197.43a20 20 0 0 1 -19.71 16.6h-158.3a20 20 0 0 1 -19.71-16.6l-35.53-206.06a19.937 19.937 0 0 1 1.34-11.31c42.4.85 43.39 19.97 87.71 19.97 45.34 0 45.34-20 90.67-20 44.28 0 45.32 19.08 87.57 19.97z" fill="#bb5a8f"/><path d="m388.9 273.97-34.04 197.43a20 20 0 0 1 -19.71 16.6h-14.68a20 20 0 0 0 19.71-16.6l34.25-198.61a112.144 112.144 0 0 0 14.47 1.18z" fill="#7a4771"/><path d="m408 168a8 8 0 0 1 -8-8v-8a8 8 0 0 1 16 0v8a8 8 0 0 1 -8 8z" fill="#41b2ff"/><path d="m392 184h-8a8 8 0 0 1 0-16h8a8 8 0 0 1 0 16z" fill="#41b2ff"/><path d="m432 184h-8a8 8 0 0 1 0-16h8a8 8 0 0 1 0 16z" fill="#41b2ff"/><path d="m408 208a8 8 0 0 1 -8-8v-8a8 8 0 0 1 16 0v8a8 8 0 0 1 -8 8z" fill="#41b2ff"/><path d="m112 128a8 8 0 0 1 -8-8v-8a8 8 0 0 1 16 0v8a8 8 0 0 1 -8 8z" fill="#02a437"/><path d="m96 144h-8a8 8 0 0 1 0-16h8a8 8 0 0 1 0 16z" fill="#02a437"/><path d="m136 144h-8a8 8 0 0 1 0-16h8a8 8 0 0 1 0 16z" fill="#02a437"/><path d="m112 168a8 8 0 0 1 -8-8v-8a8 8 0 0 1 16 0v8a8 8 0 0 1 -8 8z" fill="#02a437"/><path d="m456 248h-32a8 8 0 0 1 0-16h32a8 8 0 0 1 0 16z" fill="#e82f3e"/><path d="m440 264a8 8 0 0 1 -8-8v-32a8 8 0 0 1 16 0v32a8 8 0 0 1 -8 8z" fill="#e82f3e"/><path d="m168 80h-32a8 8 0 0 1 0-16h32a8 8 0 0 1 0 16z" fill="#fbb540"/><path d="m152 96a8 8 0 0 1 -8-8v-32a8 8 0 0 1 16 0v32a8 8 0 0 1 -8 8z" fill="#fbb540"/><path d="m220 24h72a4 4 0 0 1 4 4v44a0 0 0 0 1 0 0h-80a0 0 0 0 1 0 0v-44a4 4 0 0 1 4-4z" fill="#d18d28"/><path d="m239.12 48.88a8 8 0 0 1 -8 8h-16v-16h16a8 8 0 0 1 8 8z" fill="#9e9e9e"/><path d="m295.12 40.88v16h-32a8 8 0 0 1 0-16z" fill="#9e9e9e"/><rect fill="#fbb540" height="208" rx="12" width="144" x="184" y="232"/><g fill="#961b20"><path d="m232 296a7.974 7.974 0 0 1 -5.657-2.343l-16-16a8 8 0 0 1 11.314-11.314l16 16a8 8 0 0 1 -5.657 13.657z"/><circle cx="208" cy="272" r="8"/><circle cx="216" cy="264" r="8"/><path d="m280 296a8 8 0 0 1 -5.657-13.657l16-16a8 8 0 0 1 11.314 11.314l-16 16a7.974 7.974 0 0 1 -5.657 2.343z"/><circle cx="304" cy="272" r="8"/><circle cx="296" cy="264" r="8"/><path d="m216 376a8 8 0 0 1 -5.657-13.657l21.865-21.865a8 8 0 1 1 11.314 11.314l-21.865 21.865a7.974 7.974 0 0 1 -5.657 2.343z"/><circle cx="208" cy="368" r="8"/><circle cx="216" cy="376" r="8"/><path d="m296 376a7.974 7.974 0 0 1 -5.657-2.343l-23.035-23.035a8 8 0 0 1 11.314-11.314l23.035 23.035a8 8 0 0 1 -5.657 13.657z"/><circle cx="304" cy="368" r="8"/><circle cx="296" cy="376" r="8"/></g><path d="m288 416h-64a8 8 0 0 1 0-16h64a8 8 0 0 1 0 16z" fill="#ea9d2d"/><path d="m239.12 48.88a8 8 0 0 1 -8 8h-16v-16h16a8 8 0 0 1 8 8z" fill="#ea9d2d"/><path d="m295.12 40.88v16h-32a8 8 0 0 1 0-16z" fill="#ea9d2d"/><circle cx="240" cy="176" fill="#bb5a8f" r="16"/><circle cx="288" cy="216" fill="#bb5a8f" r="16"/><path d="m296 336-16 8v16h-48v-16l-16-8v-16a40 40 0 0 1 40-40 40 40 0 0 1 40 40z" fill="#e82f3e"/><circle cx="240" cy="320" fill="#961b20" r="8"/><circle cx="272" cy="320" fill="#961b20" r="8"/><path d="m248 360v-16a8 8 0 0 1 16 0v16z" fill="#961b20"/></g></svg>