<svg viewBox="0 0 512.00096 512" xmlns="http://www.w3.org/2000/svg"><path d="m512 256c0 141.386719-114.613281 256-256 256-141.382812 0-256-114.613281-256-256 0-141.382812 114.617188-256 256-256 141.386719 0 256 114.617188 256 256zm0 0" fill="#7dd776"/><path d="m5.644531 309.632812c24.652344 115.632813 127.367188 202.367188 250.355469 202.367188s225.703125-86.734375 250.355469-202.367188zm0 0" fill="#5cba4f"/><path d="m287.492188 309.632812h-281.847657c24.652344 115.632813 127.367188 202.367188 250.355469 202.367188 9.714844 0 19.300781-.542969 28.730469-1.597656-74.148438-42.1875-71.523438-160.261719 2.761719-200.769532zm0 0" fill="#4ea83f"/><path d="m164.695312 372.503906c-28.800781-125.597656-16.160156-225.40625-8.898437-264.378906.433594-2.3125-2.40625-4.011719-3.269531-1.957031-41.488282 98.785156-35.039063 211.601562-28.328125 266.335937zm0 0" fill="#cff9a2"/><path d="m146.691406 215.242188c-2.542968 2.898437-6.265625 4.742187-10.425781 4.742187-5.058594 0-9.472656-2.71875-11.894531-6.765625-8.726563 64.367188-4.507813 123.941406-.171875 159.285156h40.496093c-13.628906-59.4375-17.976562-113.089844-18.003906-157.261718zm0 0" fill="#bbef89"/><path d="m78.488281 372.503906h34.117188c.9375 0 1.632812-.867187 1.421875-1.78125-3.347656-14.578125-29.019532-115.460937-111.632813-182.863281-1.34375-1.097656-3.140625.667969-2.066406 2.03125 18.824219 23.984375 63 88.582031 76.722656 181.367187.105469.710938.714844 1.246094 1.4375 1.246094zm0 0" fill="#cff9a2"/><path d="m114.027344 370.722656c-2.222656-9.675781-14.285156-57.363281-46.289063-108.046875.023438.289063.042969.578125.042969.875 0 6.582031-5.335938 11.921875-11.921875 11.921875-2.46875 0-4.765625-.753906-6.667969-2.042968 11.800782 27.464843 22.316406 60.34375 27.859375 97.824218.347657 2.371094 1.726563.742188 35.554688 1.25.9375 0 1.632812-.867187 1.421875-1.78125zm0 0" fill="#bbef89"/><path d="m108.050781 372.503906h39.007813c1.070312 0 1.867187-1.277344 1.625-2.621094-3.828125-21.464843-33.179688-169.988281-127.632813-269.21875-1.539062-1.617187-3.589843.980469-2.363281 2.992188 21.519531 35.308594 72.035156 130.410156 87.71875 267.011719.121094 1.050781.820312 1.835937 1.644531 1.835937zm0 0" fill="#cff9a2"/><path d="m148.6875 369.882812c-2.445312-13.691406-15.277344-79.085937-48.765625-150.410156-.855469 7.941406-7.578125 14.125-15.746094 14.125-2.949219 0-5.699219-.820312-8.0625-2.222656 12.855469 39.460938 24.203125 86.246094 30.292969 139.292969.121094 1.050781.820312 1.835937 1.644531 1.835937h39.007813c1.070312 0 1.867187-1.277344 1.628906-2.621094zm0 0" fill="#bbef89"/><path d="m437.742188 436.28125c30.78125-31.027344 53.660156-69.898438 65.398437-113.34375-17.820313-7.851562-40.019531-14.640625-65.460937-20.007812-74.476563 14.65625-173.492188 12.875-242.691407-6.488282-88.40625 12.46875-150.046875 40.535156-150.046875 73.167969 0 64.4375 227.300782 101.609375 392.800782 66.671875zm0 0" fill="#585877"/><path d="m342.886719 312.5c-47.984375.941406-102.585938-3.378906-147.894531-16.058594-88.40625 12.46875-150.050782 40.535156-150.050782 73.167969 0 55.792969 174.542969 93.671875 336.90625 75.523437-73.308594-19.558593-95.101562-90.941406-38.960937-132.632812zm0 0" fill="#50506d"/><path d="m510.953125 279.089844c.679687-7.605469 1.046875-15.304688 1.046875-23.089844 0-12.90625-.964844-25.585938-2.808594-37.976562-27.78125-16.035157-76.40625-27.9375-134.332031-32.042969-40.007813 8.414062-88.679687 9.324219-129.070313 4.195312-70.679687 10.164063-119.839843 32.710938-119.839843 58.902344 0 35.710937 91.398437 64.660156 204.148437 64.660156 78.542969 0 146.714844-14.050781 180.855469-34.648437zm0 0" fill="#656582"/><path d="m324.253906 192.539062c-25.414062 1.546876-52.800781.894532-78.464844-2.363281-70.679687 10.164063-119.839843 32.710938-119.839843 58.898438 0 35.714843 91.398437 64.664062 204.148437 64.664062 5.746094 0 11.425782-.082031 17.050782-.230469-86.261719-24.039062-98.339844-88.011718-22.894532-120.96875zm0 0" fill="#585877"/><path d="m364.933594 111.46875c-34.828125 8.8125-82.628906 7.476562-113.070313-3.015625-54.574219 6.011719-93.761719 22.433594-93.761719 41.765625 0 24.425781 62.515626 44.226562 139.628907 44.226562s139.625-19.800781 139.625-44.226562c0-16.703125-29.265625-31.226562-72.421875-38.75zm0 0" fill="#585877"/><path d="m313.585938 117.289062c-19.953126 0-43.035157-2.398437-61.722657-8.835937-54.574219 6.011719-93.761719 22.433594-93.761719 41.765625 0 30.4375 93.722657 51.121094 182.324219 42.117188-54.355469-10.375-69.710937-52.179688-26.839843-75.046876zm0 0" fill="#50506d"/><path d="m401.273438 87.742188c0-16.929688-39.296876-30.652344-87.769532-30.652344-48.476562 0-87.773437 13.722656-87.773437 30.652344 0 16.929687 39.296875 30.65625 87.773437 30.65625 48.472656 0 87.769532-13.726563 87.769532-30.65625zm0 0" fill="#656582"/><path d="m311.386719 57.097656c-47.496094.394532-85.65625 13.964844-85.65625 30.648438 0 16.679687 38.160156 30.25 85.65625 30.640625-40.648438-12.964844-40.699219-48.304688 0-61.289063zm0 0" fill="#585877"/><g fill="#767691"><path d="m434.359375 212.34375c-7.625-3.292969-16.472656.222656-19.761719 7.847656-3.289062 7.625.222656 16.472656 7.847656 19.761719 7.625 3.292969 16.472657-.222656 19.765626-7.847656 3.289062-7.625-.226563-16.472657-7.851563-19.761719zm0 0"/><path d="m403.710938 231.769531c-4.296876-1.855469-9.285157.125-11.140626 4.425781-1.851562 4.296876.128907 9.285157 4.425782 11.136719 4.296875 1.855469 9.285156-.125 11.140625-4.421875 1.851562-4.296875-.128907-9.285156-4.425781-11.140625zm0 0"/></g></svg>