<svg id="Layer_1" enable-background="new 0 0 511.059 511.059" height="512" viewBox="0 0 511.059 511.059" width="512" xmlns="http://www.w3.org/2000/svg"><g><path d="m288.108 155.226-84.53-148.439c-5.25-8.704-17.928-8.536-22.946.304l-142.574 242.393c-15.726 27.708-24.292 59.018-24.041 90.877.77 97.765 80.309 170.698 178.315 170.698 98.484 0 178.321-71.078 178.321-169.562 0-10.136-1.032-21.492-2.731-31.403" fill="#e7f9fb"/><path d="m288.108 155.226-84.53-148.439c-2.563-4.249-6.897-6.368-11.246-6.412v510.684c98.484 0 178.321-71.078 178.321-169.562 0-10.136-1.032-21.492-2.731-31.403z" fill="#d8f1fb"/><path d="m398.648 6.251c-5.11-8.466-17.444-8.3-22.325.3l-85.727 143.995c-9.431 16.617-14.389 31.564-14.389 50.671 0 60.983 49.437 110.42 110.42 110.42 60.983 0 110.42-49.437 110.42-110.42 0-20.112-5.493-34.419-15.886-51.637z" fill="#98f9ff"/><path d="m398.648 6.251c-2.707-4.485-7.441-6.523-12.021-6.192v311.577c60.983 0 110.42-49.437 110.42-110.42 0-20.112-5.493-34.419-15.886-51.637z" fill="#7dd5f4"/></g></svg>